<?xml version="1.0" standalone="no"?>
<!DOCTYPE svg PUBLIC "-//W3C//DTD SVG 20010904//EN"
 "http://www.w3.org/TR/2001/REC-SVG-20010904/DTD/svg10.dtd">
<svg version="1.0" xmlns="http://www.w3.org/2000/svg"
 width="1024.000000pt" height="1024.000000pt" viewBox="0 0 1024.000000 1024.000000"
 preserveAspectRatio="xMidYMid meet">
<metadata>
Created by potrace 1.16, written by Peter Selinger 2001-2019
</metadata>
<g transform="translate(0.000000,1024.000000) scale(0.100000,-0.100000)"
fill="#000000" stroke="none">
<path d="M5015 8234 c-404 -62 -728 -200 -1060 -453 -84 -63 -299 -281 -367
-371 -194 -258 -334 -563 -389 -853 -27 -140 -22 -181 25 -224 43 -40 98 -45
140 -12 37 29 44 45 67 161 83 420 323 823 643 1080 411 331 881 480 1384 440
271 -22 437 -70 702 -204 183 -92 224 -103 268 -72 52 36 66 107 31 164 -27
44 -34 49 -154 114 -237 127 -472 203 -735 235 -117 15 -446 12 -555 -5z"/>
<path d="M6780 7681 c-47 -15 -106 -49 -241 -139 -275 -183 -285 -186 -709
-188 -179 -2 -327 -3 -329 -3 -2 -1 18 -18 45 -38 27 -20 99 -78 159 -128 61
-50 146 -120 190 -155 44 -35 100 -81 124 -102 41 -36 47 -38 112 -38 164 0
315 55 584 213 311 182 378 255 360 389 -9 64 -58 136 -113 166 -46 26 -139
37 -182 23z"/>
<path d="M7175 6020 c-11 -4 -46 -37 -78 -74 -63 -71 -152 -131 -252 -168 -53
-19 -80 -22 -230 -22 -185 -1 -196 1 -390 71 -103 37 -245 101 -328 149 l-48
28 -227 -13 c-352 -19 -635 -40 -775 -56 -71 -8 -139 -15 -150 -15 -38 -1 0
-15 113 -44 382 -98 631 -192 990 -373 354 -179 507 -223 769 -223 252 0 445
78 617 249 135 134 197 264 174 367 -6 27 -18 59 -26 72 -33 50 -106 74 -159
52z"/>
<path d="M4355 5429 c-44 -5 -111 -18 -150 -30 -203 -61 -550 -291 -607 -403
-33 -64 -30 -151 8 -213 61 -99 180 -137 294 -94 30 12 104 57 165 102 223
164 273 175 719 165 l289 -6 -35 24 c-60 41 -359 284 -488 397 -36 32 -76 59
-90 62 -14 3 -61 1 -105 -4z"/>
<path d="M6898 5132 c-14 -9 -52 -48 -84 -87 -358 -438 -805 -676 -1359 -726
-353 -31 -722 49 -1040 227 -141 79 -198 76 -236 -12 -17 -36 -18 -50 -9 -83
15 -56 59 -90 222 -170 301 -147 552 -204 903 -205 272 0 474 30 695 103 336
112 589 269 845 526 223 222 266 299 215 382 -35 58 -102 78 -152 45z"/>
<path d="M3353 3532 c-46 -1 -83 -6 -83 -9 0 -4 61 -98 136 -211 74 -112 133
-210 131 -216 -3 -6 -62 -96 -131 -199 -70 -103 -129 -194 -132 -202 -5 -13 9
-15 98 -15 l104 0 82 125 c45 69 82 130 82 136 0 27 29 -6 109 -126 l88 -130
108 -3 c92 -2 107 -1 102 12 -4 9 -65 103 -137 210 -71 107 -130 198 -130 202
0 4 59 96 130 205 72 109 130 203 130 209 0 7 -34 10 -102 8 l-102 -3 -36 -52
c-19 -28 -60 -90 -90 -138 -38 -59 -57 -82 -63 -73 -68 112 -152 246 -161 254
-16 17 -41 20 -133 16z"/>
<path d="M5133 3533 l-153 -4 0 -424 0 -425 264 0 c298 0 276 -7 276 85 0 90
11 85 -186 85 l-174 0 0 85 0 85 144 0 c79 0 151 3 160 6 13 5 16 22 16 85 l0
79 -160 0 -160 0 0 85 0 85 175 0 175 0 0 80 c0 98 -4 101 -132 98 -51 -1
-162 -4 -245 -5z"/>
<path d="M5958 3532 l-68 -3 0 -424 0 -425 90 0 90 0 0 262 0 262 173 -260
172 -259 83 -3 82 -3 0 426 0 425 -84 0 -85 0 -6 -44 c-4 -24 -5 -132 -3 -240
1 -108 0 -196 -3 -196 -6 0 -97 135 -263 386 -66 102 -67 102 -178 96z"/>
<path d="M6957 3525 c-223 -61 -264 -340 -65 -441 29 -15 93 -40 142 -55 131
-42 165 -85 113 -144 -44 -51 -158 -44 -253 16 -24 16 -48 29 -53 29 -5 0 -29
-30 -55 -67 -41 -60 -44 -68 -31 -83 22 -24 105 -68 162 -85 65 -20 198 -19
262 2 171 55 236 262 123 393 -41 49 -85 72 -209 112 -105 33 -133 54 -133 97
0 65 97 81 205 35 33 -14 65 -27 70 -29 6 -2 30 26 54 63 50 76 48 84 -21 120
-97 50 -213 64 -311 37z"/>
<path d="M7688 3533 l-178 -3 0 -425 0 -425 278 2 277 3 3 83 3 82 -191 0
-190 0 0 85 0 85 165 0 165 0 0 85 0 85 -162 2 -163 3 0 80 0 80 177 3 177 2
6 33 c4 18 5 54 3 82 -4 59 -14 64 -123 62 -38 -1 -150 -3 -247 -4z"/>
<path d="M2605 3517 c-3 -6 -4 -197 -3 -422 l3 -410 278 -3 277 -2 0 85 0 85
-185 0 -185 0 0 88 0 87 162 0 163 0 3 83 3 82 -166 0 -165 0 0 85 0 85 180 0
180 0 0 85 0 85 -270 0 c-207 0 -272 -3 -275 -13z"/>
<path d="M4190 3106 l0 -426 90 0 90 0 0 129 0 129 123 3 c110 4 128 7 180 33
121 59 179 206 138 351 -18 65 -79 136 -146 170 l-58 30 -209 3 -208 3 0 -425z
m357 243 c72 -27 105 -99 77 -169 -10 -25 -28 -47 -46 -56 -33 -17 -144 -30
-182 -20 l-26 6 0 125 0 125 74 0 c41 0 87 -5 103 -11z"/>
<path d="M3710 2215 l0 -135 30 0 29 0 3 78 3 77 33 -48 c19 -26 39 -46 45
-44 7 2 25 22 40 45 32 47 53 55 43 17 -4 -14 -4 -48 0 -76 6 -46 9 -50 31
-47 24 3 24 4 26 136 l2 132 -37 0 c-21 0 -38 -4 -38 -10 0 -5 -14 -30 -32
-54 -36 -52 -40 -51 -89 21 -24 34 -36 43 -59 43 l-30 0 0 -135z"/>
<path d="M4132 2232 c-28 -66 -52 -127 -52 -136 0 -27 54 -17 58 11 3 19 10
22 69 25 64 3 66 2 75 -24 8 -22 16 -28 39 -28 17 0 29 5 28 13 0 6 -24 66
-53 132 -49 111 -55 120 -82 123 -28 3 -31 -1 -82 -116z"/>
<path d="M4430 2221 l0 -129 30 -4 30 -5 0 76 1 76 25 -30 c14 -16 43 -51 64
-77 30 -35 45 -45 60 -41 12 3 20 14 21 27 0 11 2 69 3 129 l2 107 -28 0 -28
0 0 -70 c0 -38 -4 -70 -9 -70 -6 0 -34 31 -63 69 -42 56 -59 70 -80 70 l-28 1
0 -129z"/>
<path d="M4807 2226 c-31 -68 -57 -126 -57 -130 0 -3 14 -6 30 -6 22 0 33 6
39 23 8 20 14 22 70 19 55 -3 63 -7 71 -28 7 -18 17 -24 40 -24 l30 0 -20 48
c-80 195 -94 222 -120 222 -23 0 -32 -13 -83 -124z"/>
<path d="M5149 2335 c-52 -28 -79 -100 -60 -158 28 -85 119 -119 205 -77 l46
22 0 53 c0 51 -1 53 -30 57 -44 7 -90 -2 -90 -17 0 -19 25 -36 44 -29 21 8 21
-19 0 -40 -18 -19 -62 -20 -85 -3 -44 34 -47 91 -7 135 22 23 62 30 73 12 10
-16 72 -12 79 5 16 42 -117 72 -175 40z"/>
<path d="M5440 2221 l0 -130 95 -3 95 -3 0 28 c0 27 -1 27 -65 27 -63 0 -65 1
-65 25 0 24 3 25 60 25 57 0 60 1 60 25 0 24 -3 25 -60 25 -57 0 -60 1 -60 24
0 29 16 36 81 36 46 0 49 2 49 25 0 25 0 25 -95 25 l-95 0 0 -129z"/>
<path d="M5732 2218 l3 -131 28 -4 27 -4 0 82 c0 91 9 94 52 18 12 -22 27 -39
34 -39 7 0 24 20 38 45 15 25 31 45 36 45 6 0 10 -33 10 -72 l0 -73 30 -2 30
-2 0 134 0 135 -30 0 c-25 0 -36 -9 -67 -55 -20 -31 -41 -54 -47 -52 -6 2 -26
27 -45 55 -30 46 -38 52 -68 52 l-34 0 3 -132z"/>
<path d="M6120 2215 l0 -135 96 0 95 0 -3 28 c-3 26 -6 27 -65 30 -59 3 -63 4
-63 27 0 22 4 24 58 27 50 3 57 6 60 26 3 21 0 22 -57 22 -61 0 -61 0 -61 30
0 29 1 29 63 32 56 3 62 5 65 26 3 21 1 22 -92 22 l-96 0 0 -135z"/>
<path d="M6400 2215 l0 -135 30 0 29 0 3 77 3 78 63 -78 c47 -58 69 -77 88
-77 l24 0 0 135 0 135 -30 0 -30 0 0 -77 0 -77 -30 34 c-17 19 -44 54 -61 78
-24 33 -36 42 -59 42 l-30 0 0 -135z"/>
<path d="M6724 2334 c3 -9 6 -23 6 -31 0 -12 7 -14 34 -9 l33 6 6 -67 c4 -38
7 -84 7 -104 0 -29 4 -38 22 -42 12 -3 25 -4 30 -1 4 3 8 52 8 110 l0 104 40
0 c36 0 40 3 40 25 l0 25 -116 0 c-102 0 -115 -2 -110 -16z"/>
</g>
</svg>
